<svg
  width="424"
  height="315"
  viewBox="0 0 424 315"
  fill="none"
  xmlns="http://www.w3.org/2000/svg"
>
  <g id="character-unknown" clip-path="url(#clip0_700_25435)">
    <g id="&#235;&#160;&#136;&#236;&#157;&#180;&#236;&#150;&#180; 2">
      <g id="Group">
        <path
          id="Vector"
          d="M205.94 312.992L145.114 282.551L98.8662 300.108L37.5284 260.432C37.5284 260.432 17.0184 266.792 7.04678 260.76C7.04678 260.76 -2.73291 260.605 0.740249 248.104L16.5066 194.53L142.61 188.589C142.61 188.589 150.077 186.874 157.8 191.135C165.514 195.406 156.53 208.984 151.009 210.28L211.79 252.128L187.45 263.762L249.007 290.727C249.007 290.727 251.384 303.329 243.057 301.969L176.528 269.027L158.321 276.702L211.205 296.96"
          fill="url(#paint0_linear_700_25435)"
        />
        <path
          id="Vector_2"
          d="M383.848 131.823C383.436 134.688 381.883 137.307 379.579 139.022C377.23 140.783 374.333 141.504 371.463 141.094C368.593 140.683 365.97 139.132 364.252 136.832C362.488 134.487 361.766 131.594 362.177 128.729C362.588 125.864 364.142 123.245 366.445 121.529C368.794 119.768 371.692 119.047 374.562 119.458C377.431 119.869 380.055 121.42 381.773 123.719C383.537 126.065 384.259 128.957 383.848 131.823Z"
          fill="url(#paint1_linear_700_25435)"
        />
        <path
          id="Vector_3"
          fill-rule="evenodd"
          clip-rule="evenodd"
          d="M423.68 64.3042C426.641 43.5992 408.471 27.8401 389.168 25.0843C369.864 22.3285 370.659 25.2394 362.982 29.1815C355.688 32.9958 349.4 39.137 346.448 47.4044C345.515 50.1237 345.753 53.135 347.014 55.7448C348.285 58.3546 350.551 60.3165 353.275 61.3111C355.999 62.3058 358.997 62.1233 361.602 60.9188C364.206 59.7142 366.281 57.5151 367.277 54.8049C367.99 52.7791 369.828 50.5526 373.045 48.8918C376.39 47.1854 380.96 46.2547 386.023 46.9755C398.061 48.6911 402.366 56.8307 401.744 61.1743C401.123 65.5178 399.267 67.0144 394.606 69.0219C394.341 69.1679 393.875 69.4599 393.107 69.7154L375.96 76.9243C375.832 76.9699 375.695 77.0703 375.567 77.1068C375.375 77.198 375.174 77.2893 374.973 77.4444C374.516 77.6817 374.114 77.928 373.712 78.1744C373.511 78.3295 373.365 78.4847 373.154 78.6398C372.807 78.9501 372.469 79.2056 372.176 79.5341C371.966 79.7439 371.811 79.9629 371.592 80.2367C371.363 80.5652 371.08 80.8298 370.842 81.2222C370.668 81.5598 370.513 81.8427 370.339 82.1804C370.248 82.4085 370.093 82.6275 369.928 82.9104L369.892 83.1476C369.782 83.4944 369.663 83.905 369.553 84.2518C369.498 84.6076 369.343 84.8905 369.288 85.2464L369.243 85.5475L367.625 96.8536C367.204 99.7645 367.945 102.666 369.736 105.048C371.528 107.43 374.105 108.944 377.021 109.364C379.936 109.784 382.843 109.045 385.228 107.256C387.541 105.522 389.131 102.894 389.551 99.9835L390.292 94.8095C394.569 92.9936 398.774 91.1595 403.042 89.4075L405.208 88.3216C414.439 83.7499 422.062 75.4916 423.671 64.2494V64.3133L423.68 64.3042Z"
          fill="url(#paint2_linear_700_25435)"
        />
        <path
          id="Vector_4"
          d="M220.728 200.023C219.695 226.924 218.644 253.825 217.611 280.735C217.995 284.951 218.726 287.624 219.54 289.385C219.96 290.307 220.746 291.302 221.916 292.506C224.713 295.399 228.46 297.507 236.878 300.253C244.08 302.608 247.746 303.767 250.798 302.845C251.264 302.708 257.068 300.874 257.763 296.658C258.119 294.486 256.959 292.661 256.045 291.265C255.094 289.814 252.535 286.429 242.801 282.596C240.013 281.501 236.147 280.178 231.385 279.129C231.669 239.699 231.714 210.973 231.595 206.921C231.568 206.064 231.586 203.956 230.133 202.304C228.698 200.652 226.907 199.977 226.23 199.786C223.699 199.037 221.541 199.722 220.737 200.014H220.728V200.023Z"
          fill="url(#paint3_linear_700_25435)"
        />
        <path
          id="Vector_5"
          d="M175.842 213.565C178.721 240.33 181.6 267.103 184.479 293.876C184.973 295.929 185.503 297.599 186.033 298.949C186.033 298.949 186.755 300.674 187.632 302.152C188.354 303.366 191.261 307.527 203.344 312.035C209.742 314.426 213.023 315.594 217.099 314.69C218.534 314.371 222.839 313.413 223.973 310.338C225.572 305.976 219.64 300.61 218.69 299.78C216.469 297.836 214.75 297.252 207.073 294.113C203.006 292.452 199.779 291.093 197.887 290.299C192.44 251.243 188.318 222.818 187.605 218.822C187.459 217.973 187.166 215.883 185.494 214.469C183.821 213.054 181.938 212.635 181.262 212.534C178.639 212.16 176.6 213.146 175.851 213.556L175.842 213.565Z"
          fill="url(#paint4_linear_700_25435)"
        />
        <path
          id="Vector_6"
          d="M228.087 69.4141L229.833 123.481L129.577 152.389L88.082 106.727L228.087 69.4141Z"
          fill="url(#paint5_linear_700_25435)"
        />
        <path
          id="Vector_7"
          d="M122.256 150.564L143.643 264.245L286.363 218.985C286.198 180.458 286.025 141.923 285.86 103.396C231.331 119.119 176.794 134.842 122.265 150.564H122.256Z"
          fill="url(#paint6_linear_700_25435)"
        />
        <path
          id="Vector_8"
          d="M80.7695 104.902L122.265 150.565L143.643 264.246L110.392 233.713L80.7695 104.902Z"
          fill="#722727"
        />
        <path
          id="Vector_9"
          d="M229.649 176.125C231.56 176.033 233.031 174.427 232.94 172.538C232.848 170.65 231.231 169.18 229.33 169.272C227.428 169.363 225.948 170.969 226.039 172.858C226.131 174.747 227.748 176.216 229.649 176.125Z"
          fill="#5B443A"
        />
        <path
          id="Vector_10"
          d="M227.73 192.787C229.924 192.604 231.688 190.569 231.688 188.27C231.688 185.97 229.915 184.255 227.721 184.446C225.528 184.629 223.764 186.645 223.764 188.963C223.764 191.281 225.546 192.987 227.73 192.796V192.787Z"
          fill="#5B443A"
        />
        <path
          id="Vector_11"
          d="M57.727 128.245V128.227C57.0232 126.648 56.5022 125.115 56.1092 123.664C55.1769 120.178 55.8441 116.482 57.9372 113.562C89.1865 71.8514 124.878 41.7019 156.127 0C205.775 21.5718 294.249 53.7471 299.331 57.4884C306.14 62.5072 306.451 67.736 306.451 67.736C306.451 67.7633 306.451 67.7907 306.451 67.8272C308.498 105.076 251.008 141.403 198.993 153.923C146.402 166.589 72.5519 161.552 57.7087 128.236H57.727V128.245Z"
          fill="url(#paint7_linear_700_25435)"
        />
        <path
          id="Vector_12"
          d="M205.758 165.002C204.991 162.127 202.038 160.421 199.15 161.187C196.262 161.954 194.544 164.901 195.302 167.776C196.07 170.65 199.022 172.356 201.91 171.59C204.799 170.823 206.517 167.876 205.758 165.002Z"
          fill="#5B443A"
        />
        <path
          id="Vector_13"
          d="M245.919 154.361C245.151 151.487 242.199 149.78 239.31 150.547C236.422 151.313 234.704 154.261 235.462 157.135C236.221 160.009 239.182 161.716 242.071 160.949C244.959 160.183 246.677 157.235 245.919 154.361Z"
          fill="#5B443A"
        />
      </g>
    </g>
  </g>
  <defs>
    <linearGradient
      id="paint0_linear_700_25435"
      x1="-4.98101"
      y1="168.232"
      x2="222.362"
      y2="320.546"
      gradientUnits="userSpaceOnUse"
    >
      <stop stop-color="white" stop-opacity="0" />
      <stop offset="0.85" stop-color="#2D160D" />
    </linearGradient>
    <linearGradient
      id="paint1_linear_700_25435"
      x1="371.408"
      y1="138.858"
      x2="375.417"
      y2="117.366"
      gradientUnits="userSpaceOnUse"
    >
      <stop stop-color="#F9D3D2" />
      <stop offset="0.03" stop-color="#F9CECB" />
      <stop offset="0.24" stop-color="#FBAFA2" />
      <stop offset="0.45" stop-color="#FC9682" />
      <stop offset="0.65" stop-color="#FE856B" />
      <stop offset="0.84" stop-color="#FE7A5D" />
      <stop offset="1" stop-color="#FF7759" />
    </linearGradient>
    <linearGradient
      id="paint2_linear_700_25435"
      x1="370.248"
      y1="122.285"
      x2="392.025"
      y2="24.385"
      gradientUnits="userSpaceOnUse"
    >
      <stop stop-color="#F9D3D2" />
      <stop offset="0.03" stop-color="#F9CECB" />
      <stop offset="0.24" stop-color="#FBAFA2" />
      <stop offset="0.45" stop-color="#FC9682" />
      <stop offset="0.65" stop-color="#FE856B" />
      <stop offset="0.84" stop-color="#FE7A5D" />
      <stop offset="1" stop-color="#FF7759" />
    </linearGradient>
    <linearGradient
      id="paint3_linear_700_25435"
      x1="242.679"
      y1="204.846"
      x2="234.672"
      y2="306.041"
      gradientUnits="userSpaceOnUse"
    >
      <stop stop-color="#2D160D" />
      <stop offset="0.91" stop-color="#916857" />
      <stop offset="1" stop-color="#643927" />
    </linearGradient>
    <linearGradient
      id="paint4_linear_700_25435"
      x1="197.043"
      y1="215.273"
      x2="203.982"
      y2="319.683"
      gradientUnits="userSpaceOnUse"
    >
      <stop stop-color="#2D160D" />
      <stop offset="0.91" stop-color="#916857" />
      <stop offset="1" stop-color="#643927" />
    </linearGradient>
    <linearGradient
      id="paint5_linear_700_25435"
      x1="157.136"
      y1="78.3617"
      x2="170.18"
      y2="222.253"
      gradientUnits="userSpaceOnUse"
    >
      <stop stop-color="#A56767" stop-opacity="0.68" />
      <stop offset="0.08" stop-opacity="0.8" />
      <stop offset="0.19" stop-opacity="0.91" />
      <stop offset="0.3" stop-opacity="0.98" />
      <stop offset="0.4" stop-color="#3D0B0B" />
    </linearGradient>
    <linearGradient
      id="paint6_linear_700_25435"
      x1="203.588"
      y1="119.074"
      x2="210.459"
      y2="254.799"
      gradientUnits="userSpaceOnUse"
    >
      <stop stop-color="#FDD3C2" />
      <stop offset="0.2" stop-color="#FBD9CB" />
      <stop offset="0.66" stop-color="#F9E4DC" />
      <stop offset="1" stop-color="#F9E9E3" />
    </linearGradient>
    <linearGradient
      id="paint7_linear_700_25435"
      x1="184.592"
      y1="159.114"
      x2="146.763"
      y2="2.97441"
      gradientUnits="userSpaceOnUse"
    >
      <stop stop-color="#9B6B6B" />
      <stop offset="0.03" stop-color="#7E544D" />
      <stop offset="0.06" stop-color="#684236" />
      <stop offset="0.08" stop-color="#583525" />
      <stop offset="0.12" stop-color="#4E2D1C" />
      <stop offset="0.16" stop-color="#4C2B19" />
      <stop offset="0.37" stop-color="#4C2B19" />
      <stop offset="0.39" stop-color="#4C2B19" />
      <stop offset="0.57" stop-color="#67381E" />
      <stop offset="0.89" stop-color="#A1562B" />
    </linearGradient>
    <clipPath id="clip0_700_25435">
      <rect width="424" height="315" fill="white" />
    </clipPath>
  </defs>
</svg>
