<svg
  width="369"
  height="331"
  viewBox="0 0 369 331"
  fill="none"
  xmlns="http://www.w3.org/2000/svg"
>
  <g id="character-comming-soon" clip-path="url(#clip0_30_23790)">
    <g id="&#235;&#160;&#136;&#236;&#157;&#180;&#236;&#150;&#180; 1">
      <g id="Group">
        <path
          id="Vector"
          d="M191.654 268.398C191.36 267.693 190.49 265.869 188.469 264.672C187.931 264.352 186.403 263.596 184.452 263.66C182.495 263.718 181.126 265.011 180.55 265.517C177.832 267.911 159.513 285.146 134.517 308.962C130.008 301.619 124.699 298.162 121.789 296.612C116.231 293.642 113.794 293.987 112.994 294.135C110.768 294.563 107.66 296.747 107.398 299.64C107.219 301.567 107.909 303.949 108.779 305.498C110.391 308.36 115.271 313.059 115.732 313.514C126.03 323.764 127.328 323.309 128.786 323.546C130.309 323.796 134.869 324.206 140.843 319.577C157.786 302.521 174.723 285.46 191.667 268.404H191.66L191.654 268.398Z"
          fill="url(#paint0_linear_30_23790)"
        />
        <path
          id="Vector_2"
          d="M233.421 264.064C232.743 263.245 227.638 257.201 223.219 258.565C221.639 259.058 220.603 260.249 219.957 261.401C215.262 269.794 213.305 273.219 212.767 274.807C210.804 280.543 203.947 290.819 190.496 311.978C189.85 310.147 189.006 308.348 186.844 305.627C184.746 302.99 181.202 297.676 175.388 298.431C173.079 298.732 171.218 299.667 170.105 302.535C168.653 306.261 169.203 309.04 173.604 316.671C179.348 326.646 181.938 329.495 184.26 330.455C185.417 330.935 186.275 330.967 186.588 330.98C191.097 331.249 194.641 327.241 196.201 325.481C200.813 320.263 215.236 296.747 233.414 264.051H233.421V264.064Z"
          fill="url(#paint1_linear_30_23790)"
        />
        <path
          id="Vector_3"
          d="M262.982 119.201L242.687 170.393L86.2441 182.621L134.49 131.878L262.982 119.201Z"
          fill="url(#paint2_linear_30_23790)"
        />
        <path
          id="Vector_4"
          d="M262.982 119.201L242.687 170.393L149.988 177.64L134.49 131.878L262.982 119.201Z"
          fill="url(#paint3_linear_30_23790)"
        />
        <g id="Group_2">
          <path
            id="Vector_5"
            d="M14.5178 191.611L6.69531 227.233L44.1767 242.669L55.0885 206.778L14.5178 191.618V191.611Z"
            fill="url(#paint4_linear_30_23790)"
          />
          <path
            id="Vector_6"
            d="M60.1789 226.106L44.1758 242.668L55.0876 206.778L70.1185 196.041L60.1789 226.106Z"
            fill="#1C94E5"
          />
          <path
            id="Vector_7"
            d="M70.1193 196.041L55.0883 206.771L14.5176 191.611L34.9725 183L70.1193 196.041Z"
            fill="#DCF4FF"
          />
        </g>
        <path
          id="Vector_8"
          d="M93.2358 34.7954C102.834 34.7954 110.614 27.0075 110.614 17.4006C110.614 7.79376 102.834 0.00585938 93.2358 0.00585938C83.638 0.00585938 75.8574 7.79376 75.8574 17.4006C75.8574 27.0075 83.638 34.7954 93.2358 34.7954Z"
          fill="url(#paint5_radial_30_23790)"
        />
        <path
          id="Vector_9"
          d="M163.914 142.493C176.765 142.493 187.183 132.065 187.183 119.201C187.183 106.338 176.765 95.9102 163.914 95.9102C151.062 95.9102 140.645 106.338 140.645 119.201C140.645 132.065 151.062 142.493 163.914 142.493Z"
          fill="url(#paint6_radial_30_23790)"
        />
        <path
          id="Vector_10"
          d="M213.112 219.909C236.126 219.909 254.783 201.235 254.783 178.199C254.783 155.163 236.126 136.488 213.112 136.488C190.098 136.488 171.441 155.163 171.441 178.199C171.441 201.235 190.098 219.909 213.112 219.909Z"
          fill="url(#paint7_radial_30_23790)"
        />
        <path
          id="Vector_11"
          d="M86.2441 182.623L125.664 285.064L264.23 274.597L242.694 170.395L86.2441 182.629V182.623Z"
          fill="url(#paint8_linear_30_23790)"
        />
        <path
          id="Vector_12"
          d="M281.167 223.192L264.223 274.595L242.688 170.393L262.982 119.201L281.167 223.192Z"
          fill="#722727"
        />
        <path
          id="Vector_13"
          d="M170.558 222.75C172.177 222.225 173.066 220.496 172.547 218.883C172.029 217.27 170.296 216.386 168.678 216.911C167.06 217.436 166.171 219.171 166.689 220.778C167.207 222.392 168.94 223.275 170.558 222.75Z"
          fill="#5B443A"
        />
        <path
          id="Vector_14"
          d="M176.719 236.092C178.35 235.567 179.168 233.576 178.542 231.643C177.915 229.709 176.092 228.576 174.461 229.108C172.83 229.633 172.017 231.63 172.638 233.551C173.258 235.471 175.088 236.617 176.719 236.086V236.092Z"
          fill="#5B443A"
        />
        <path
          id="Vector_15"
          d="M144.975 209.595C145.634 209.396 146.382 209.582 146.868 210.133C147.284 210.607 148.48 211.72 150.572 211.893C151.192 211.945 152.836 212.085 154.39 211.131C156.021 210.126 156.335 208.993 156.347 208.942C156.603 207.969 157.595 207.386 158.567 207.636C159.539 207.892 160.127 208.878 159.872 209.851C159.718 210.459 158.995 212.572 156.29 214.23C153.712 215.811 151.115 215.587 150.265 215.517C146.862 215.229 144.847 213.334 144.144 212.534C143.478 211.778 143.549 210.626 144.303 209.96C144.508 209.781 144.738 209.653 144.981 209.582L144.975 209.595Z"
          fill="#5B443A"
        />
        <path
          id="Vector_16"
          d="M181.791 205.099C182.462 204.894 183.23 205.087 183.722 205.65C184.151 206.13 185.373 207.27 187.509 207.455C188.142 207.507 189.824 207.647 191.411 206.674C193.08 205.65 193.4 204.491 193.413 204.44C193.675 203.448 194.685 202.852 195.683 203.108C196.675 203.371 197.276 204.376 197.014 205.368C196.854 205.989 196.118 208.153 193.355 209.85C190.726 211.463 188.065 211.239 187.196 211.162C183.716 210.868 181.657 208.934 180.94 208.115C180.262 207.346 180.333 206.168 181.1 205.49C181.311 205.304 181.548 205.176 181.791 205.106V205.099Z"
          fill="#5B443A"
        />
        <path
          id="Vector_17"
          d="M364.995 149.363C344.329 174.428 280.637 160.49 239.234 136.552C198.286 112.877 154.78 65.3406 165.583 33.7202C165.595 33.6945 165.608 33.6689 165.608 33.6433C165.608 33.6433 167.15 29.213 174.128 26.5689C179.341 24.597 241.908 17.6058 322.966 7.18945C339.238 50.8909 352.107 92.9469 368.379 136.648C369.441 139.689 369.102 143.044 367.464 145.816C366.78 146.969 365.968 148.166 364.983 149.35V149.363H364.995Z"
          fill="url(#paint9_linear_30_23790)"
        />
        <g id="Group_3">
          <path
            id="Vector_18"
            d="M107.103 116.187L97.8091 120.874C95.9158 121.828 93.722 121.29 92.9096 119.67L90.1273 114.164C89.3086 112.544 90.1849 110.464 92.0717 109.51L101.365 104.823C103.259 103.87 105.452 104.407 106.265 106.027L109.047 111.533C109.866 113.153 108.99 115.233 107.103 116.187Z"
            fill="url(#paint10_linear_30_23790)"
          />
          <path
            id="Vector_19"
            d="M83.9231 108.87L15.075 140.356C10.6616 142.584 5.0714 140.394 2.59609 135.471L1.17614 132.622C-1.30556 127.698 0.261496 121.898 4.67484 119.67L70.9517 83.12C75.365 80.892 80.9553 83.0815 83.4306 88.0048L87.4154 95.918C89.8971 100.841 88.33 106.642 83.9167 108.87H83.9231Z"
            fill="url(#paint11_linear_30_23790)"
          />
          <path
            id="Vector_20"
            d="M81.0767 108.126C74.3927 95.815 68.6362 83.0298 62.4 70.584C61.9011 69.5852 59.9183 65.5006 62.6366 62.1331C63.3658 61.2304 63.8071 59.9691 71.7575 59.3545C81.9594 58.567 86.264 58.2277 90.9907 61.7617C93.1782 63.4007 94.4191 65.3726 95.1418 66.9027L108.273 94.7202C110.729 99.6563 108.043 105.988 102.274 108.863L95.9733 111.865C95.468 112.173 91.4832 114.497 86.9804 113.306C82.631 112.153 81.2622 108.639 81.0831 108.133L81.0767 108.126Z"
            fill="url(#paint12_linear_30_23790)"
          />
          <path
            id="Vector_21"
            d="M112.464 121.833L98.9805 128.626C96.5499 129.849 93.6205 128.939 92.4372 126.596L90.1282 122.019C89.2328 120.252 90.0003 118.069 91.8296 117.147L107.481 109.266C109.31 108.344 111.523 109.029 112.412 110.796L114.721 115.373C115.905 117.716 114.894 120.617 112.464 121.839V121.833Z"
            fill="url(#paint13_linear_30_23790)"
          />
        </g>
      </g>
    </g>
  </g>
  <defs>
    <linearGradient
      id="paint0_linear_30_23790"
      x1="174.457"
      y1="256.054"
      x2="116.665"
      y2="319.036"
      gradientUnits="userSpaceOnUse"
    >
      <stop stop-color="#2D160D" />
      <stop offset="0.91" stop-color="#916857" />
      <stop offset="1" stop-color="#643927" />
    </linearGradient>
    <linearGradient
      id="paint1_linear_30_23790"
      x1="235.919"
      y1="269.569"
      x2="173.832"
      y2="321.35"
      gradientUnits="userSpaceOnUse"
    >
      <stop stop-color="#2D160D" />
      <stop offset="0.93" stop-color="#916857" />
      <stop offset="1" stop-color="#643927" />
    </linearGradient>
    <linearGradient
      id="paint2_linear_30_23790"
      x1="168.514"
      y1="134.909"
      x2="189.373"
      y2="189.626"
      gradientUnits="userSpaceOnUse"
    >
      <stop stop-color="#BE837D" stop-opacity="0.9801" />
      <stop offset="0.13" stop-color="#9A615D" stop-opacity="0.81" />
      <stop offset="0.25" stop-color="#7C4542" stop-opacity="0.6724" />
      <stop offset="0.38" stop-color="#642F2D" stop-opacity="0.5776" />
      <stop offset="0.5" stop-color="#541F1E" stop-opacity="0.5041" />
      <stop offset="0.63" stop-color="#4A1615" stop-opacity="0.4761" />
      <stop offset="0.75" stop-color="#471313" stop-opacity="0.68" />
    </linearGradient>
    <linearGradient
      id="paint3_linear_30_23790"
      x1="196.339"
      y1="116.844"
      x2="230.601"
      y2="241.267"
      gradientUnits="userSpaceOnUse"
    >
      <stop stop-color="#A56767" stop-opacity="0.68" />
      <stop offset="0.08" stop-color="#7F4545" stop-opacity="0.64" />
      <stop offset="0.19" stop-color="#5A2525" stop-opacity="0.8281" />
      <stop offset="0.3" stop-color="#441111" stop-opacity="0.9604" />
      <stop offset="0.4" stop-color="#3D0B0B" />
    </linearGradient>
    <linearGradient
      id="paint4_linear_30_23790"
      x1="34.9871"
      y1="196.521"
      x2="25.186"
      y2="245.485"
      gradientUnits="userSpaceOnUse"
    >
      <stop offset="0.2" stop-color="#5ACDFF" />
      <stop offset="1" stop-color="#FFE8DC" />
    </linearGradient>
    <radialGradient
      id="paint5_radial_30_23790"
      cx="0"
      cy="0"
      r="1"
      gradientUnits="userSpaceOnUse"
      gradientTransform="translate(76 -16.5) rotate(57.1826) scale(78.1166 78.1881)"
    >
      <stop offset="0.33" stop-color="#FFF7EE" />
      <stop offset="0.41" stop-color="#FFD7CE" />
      <stop offset="0.49" stop-color="#FFBFB6" />
      <stop offset="0.54" stop-color="#FFB6AD" />
      <stop offset="0.59" stop-color="#FEBAB2" />
      <stop offset="0.65" stop-color="#FCC8C1" />
      <stop offset="0.72" stop-color="#FAE0D9" />
      <stop offset="0.74" stop-color="#F9E9E3" />
    </radialGradient>
    <radialGradient
      id="paint6_radial_30_23790"
      cx="0"
      cy="0"
      r="1"
      gradientUnits="userSpaceOnUse"
      gradientTransform="translate(154.5 105) rotate(47.0493) scale(50.8562 50.8606)"
    >
      <stop offset="0.21" stop-color="#FFEACF" />
      <stop offset="0.35" stop-color="#FFDC9B" />
      <stop offset="0.47" stop-color="#FFD173" />
      <stop offset="0.57" stop-color="#FFCA5B" />
      <stop offset="0.62" stop-color="#FFC852" />
      <stop offset="0.68" stop-color="#FEC957" />
      <stop offset="0.74" stop-color="#FECC66" />
      <stop offset="0.81" stop-color="#FDD27E" />
      <stop offset="0.89" stop-color="#FBDAA1" />
      <stop offset="0.97" stop-color="#F9E4CD" />
      <stop offset="1" stop-color="#F9E9E3" />
    </radialGradient>
    <radialGradient
      id="paint7_radial_30_23790"
      cx="0"
      cy="0"
      r="1"
      gradientUnits="userSpaceOnUse"
      gradientTransform="translate(193.722 136.977) rotate(53.6947) scale(102.304 102.4)"
    >
      <stop offset="0.22" stop-color="#FFEACF" />
      <stop offset="0.32" stop-color="#FFB39B" />
      <stop offset="0.42" stop-color="#FF8B74" />
      <stop offset="0.49" stop-color="#FF735D" />
      <stop offset="0.54" stop-color="#FF6A55" />
      <stop offset="0.58" stop-color="#FE6E5A" />
      <stop offset="0.63" stop-color="#FE7B69" />
      <stop offset="0.69" stop-color="#FD9281" />
      <stop offset="0.75" stop-color="#FBB0A4" />
      <stop offset="0.81" stop-color="#F9D8D0" />
      <stop offset="0.84" stop-color="#F9E9E3" />
    </radialGradient>
    <linearGradient
      id="paint8_linear_30_23790"
      x1="162.164"
      y1="169.229"
      x2="200.282"
      y2="288.791"
      gradientUnits="userSpaceOnUse"
    >
      <stop stop-color="#FDD3C2" />
      <stop offset="0.2" stop-color="#FBD9CB" />
      <stop offset="0.66" stop-color="#F9E4DC" />
      <stop offset="1" stop-color="#F9E9E3" />
    </linearGradient>
    <linearGradient
      id="paint9_linear_30_23790"
      x1="238.873"
      y1="137.486"
      x2="316.525"
      y2="3.60201"
      gradientUnits="userSpaceOnUse"
    >
      <stop stop-color="#9B6B6B" />
      <stop offset="0.03" stop-color="#7E544D" />
      <stop offset="0.06" stop-color="#684236" />
      <stop offset="0.08" stop-color="#583525" />
      <stop offset="0.12" stop-color="#4E2D1C" />
      <stop offset="0.16" stop-color="#4C2B19" />
      <stop offset="0.37" stop-color="#4C2B19" />
      <stop offset="0.39" stop-color="#4C2B19" />
      <stop offset="0.57" stop-color="#67381E" />
      <stop offset="0.89" stop-color="#A1562B" />
    </linearGradient>
    <linearGradient
      id="paint10_linear_30_23790"
      x1="104.723"
      y1="103.752"
      x2="89.6613"
      y2="115.599"
      gradientUnits="userSpaceOnUse"
    >
      <stop stop-color="#FFE3DE" />
      <stop offset="0.21" stop-color="#DBC3BD" />
      <stop offset="0.42" stop-color="#BDA9A1" />
      <stop offset="0.6" stop-color="#AB9990" />
      <stop offset="0.73" stop-color="#A5948B" />
      <stop offset="0.79" stop-color="#AB9A91" />
      <stop offset="0.87" stop-color="#BEABA2" />
      <stop offset="0.97" stop-color="#DDC8BE" />
      <stop offset="1" stop-color="#EAD4CA" />
    </linearGradient>
    <linearGradient
      id="paint11_linear_30_23790"
      x1="51.9023"
      y1="128.57"
      x2="35.044"
      y2="96.6855"
      gradientUnits="userSpaceOnUse"
    >
      <stop stop-color="#FFEBCC" />
      <stop offset="0.01" stop-color="#FFE5C4" />
      <stop offset="0.07" stop-color="#FFCCA7" />
      <stop offset="0.13" stop-color="#FFB990" />
      <stop offset="0.2" stop-color="#FFAC7F" />
      <stop offset="0.27" stop-color="#FFA476" />
      <stop offset="0.37" stop-color="#FFA273" />
      <stop offset="0.81" stop-color="#FFF4D7" />
    </linearGradient>
    <linearGradient
      id="paint12_linear_30_23790"
      x1="99.8348"
      y1="76.057"
      x2="71.7401"
      y2="90.0329"
      gradientUnits="userSpaceOnUse"
    >
      <stop stop-color="#FFE3DE" />
      <stop offset="0.21" stop-color="#DBC3BD" />
      <stop offset="0.42" stop-color="#BDA9A1" />
      <stop offset="0.6" stop-color="#AB9990" />
      <stop offset="0.73" stop-color="#A5948B" />
      <stop offset="0.79" stop-color="#AB9A91" />
      <stop offset="0.87" stop-color="#BEABA2" />
      <stop offset="0.97" stop-color="#DDC8BE" />
      <stop offset="1" stop-color="#EAD4CA" />
    </linearGradient>
    <linearGradient
      id="paint13_linear_30_23790"
      x1="110.597"
      y1="108.262"
      x2="91.2203"
      y2="125.419"
      gradientUnits="userSpaceOnUse"
    >
      <stop stop-color="#FFE3DE" />
      <stop offset="0.21" stop-color="#DBC3BD" />
      <stop offset="0.42" stop-color="#BDA9A1" />
      <stop offset="0.6" stop-color="#AB9990" />
      <stop offset="0.73" stop-color="#A5948B" />
      <stop offset="0.79" stop-color="#AB9A91" />
      <stop offset="0.87" stop-color="#BEABA2" />
      <stop offset="0.97" stop-color="#DDC8BE" />
      <stop offset="1" stop-color="#EAD4CA" />
    </linearGradient>
    <clipPath id="clip0_30_23790">
      <rect width="369" height="331" fill="white" />
    </clipPath>
  </defs>
</svg>
