<svg
  width="16"
  height="16"
  viewBox="0 0 16 16"
  fill="none"
  xmlns="http://www.w3.org/2000/svg"
>
  <path
    id="Vector"
    d="M6.74971 0.417081C7.10439 0.147096 7.54514 0 7.99943 0C8.45371 0 8.89447 0.147096 9.24914 0.417081L15.2491 4.98239C15.7234 5.34327 16 5.89002 16 6.46829V14.0978C16 14.6023 15.7893 15.0861 15.4142 15.4429C15.0391 15.7996 14.5304 16 14 16H10C9.77267 16 9.55465 15.9141 9.39391 15.7612C9.23316 15.6083 9.14286 15.401 9.14286 15.1848V9.47813H6.85714V15.1848C6.85714 15.401 6.76684 15.6083 6.60609 15.7612C6.44535 15.9141 6.22733 16 6 16H2C1.46957 16 0.960859 15.7996 0.585786 15.4429C0.210714 15.0861 0 14.6023 0 14.0978V6.4672C0 5.89002 0.276571 5.34327 0.750857 4.98239L6.74971 0.417081ZM8.17829 1.68993C8.12766 1.65148 8.06479 1.63054 8 1.63054C7.93521 1.63054 7.87234 1.65148 7.82171 1.68993L1.82171 6.25524C1.7881 6.28077 1.76098 6.31319 1.74238 6.35008C1.72378 6.38697 1.71418 6.42738 1.71429 6.46829V14.0978C1.71429 14.2478 1.84229 14.3695 2 14.3695H5.14286V8.6629C5.14286 8.44668 5.23316 8.23933 5.39391 8.08644C5.55465 7.93355 5.77267 7.84766 6 7.84766H10C10.2273 7.84766 10.4453 7.93355 10.6061 8.08644C10.7668 8.23933 10.8571 8.44668 10.8571 8.6629V14.3695H14C14.0758 14.3695 14.1484 14.3409 14.202 14.2899C14.2556 14.239 14.2857 14.1699 14.2857 14.0978V6.4672C14.2857 6.42647 14.276 6.38628 14.2574 6.34959C14.2388 6.3129 14.2117 6.28066 14.1783 6.25524L8.17829 1.68993Z"
    fill="#966E5D"
  />
</svg>
