<svg
  width="16"
  height="14"
  viewBox="0 0 16 14"
  fill="none"
  xmlns="http://www.w3.org/2000/svg"
>
  <path
    d="M7.99422 0C3.58641 0 0 2.87762 0 6.40871C0 8.44444 0.740419 9.56148 2.094 10.7423C2.25597 10.8799 2.30224 10.9946 2.31381 10.9946C2.22126 11.3041 2.03615 11.6022 1.7932 11.8544C1.57339 12.0722 1.49241 12.4047 1.59653 12.7028C1.70065 13.0009 1.95517 13.2187 2.26753 13.2645C2.59147 13.3104 2.9154 13.3333 3.23933 13.3333C4.25741 13.3333 5.24078 13.0926 6.10846 12.6455C6.72162 12.7601 7.35792 12.8289 8.00578 12.8289C12.4136 12.8289 16 9.95127 16 6.42018C16 2.88908 12.3905 0 7.99422 0ZM7.99422 11.1665C7.36949 11.1665 6.74476 11.0977 6.15474 10.9602C5.94649 10.9143 5.71511 10.9487 5.53001 11.0633C5.03254 11.3614 4.46565 11.5563 3.87563 11.6366C3.89877 11.5792 3.91034 11.5334 3.92191 11.4761C4.13015 10.7997 3.86406 10.0774 3.20463 9.50416C2.22126 8.64431 1.67751 7.54371 1.67751 6.42018C1.67751 3.80625 4.51193 1.67383 7.98265 1.67383C11.4534 1.67383 14.2878 3.80625 14.2878 6.42018C14.2878 9.03411 11.4534 11.1665 7.98265 11.1665H7.99422Z"
    fill="#643927"
  />
</svg>
