<svg
  width="49"
  height="49"
  viewBox="0 0 49 49"
  fill="none"
  xmlns="http://www.w3.org/2000/svg"
>
  <g id="studio-officetel">
    <path
      id="Rectangle 364"
      d="M1.03125 3.54688C1.03125 2.44231 1.92668 1.54688 3.03125 1.54688H45.9283C47.0329 1.54688 47.9283 2.44231 47.9283 3.54688V49.4747H3.03125C1.92668 49.4747 1.03125 48.5792 1.03125 47.4747V3.54688Z"
      fill="#643927"
    />
    <path
      id="Rectangle 387"
      d="M1.03125 3.54688C1.03125 2.44231 1.92668 1.54688 3.03125 1.54688H45.9283C47.0329 1.54688 47.9283 2.44231 47.9283 3.54688V49.4747H3.03125C1.92668 49.4747 1.03125 48.5792 1.03125 47.4747V3.54688Z"
      fill="url(#paint0_linear_1_11138)"
    />
    <rect
      id="Rectangle 367"
      width="48.9585"
      height="4.63817"
      rx="2"
      fill="#643927"
    />
    <rect
      id="Rectangle 374"
      x="5.66797"
      y="21.6445"
      width="6.18423"
      height="7.73029"
      fill="#E4CFC6"
    />
    <rect
      id="Rectangle 375"
      x="13.3984"
      y="21.6445"
      width="6.18423"
      height="7.73029"
      fill="#E4CFC6"
    />
    <rect
      id="Rectangle 376"
      x="21.1211"
      y="21.6523"
      width="6.18423"
      height="7.73029"
      transform="rotate(-0.136105 21.1211 21.6523)"
      fill="#E4CFC6"
    />
    <rect
      id="Rectangle 377"
      x="28.8594"
      y="21.6445"
      width="6.18423"
      height="7.73029"
      fill="#E4CFC6"
    />
    <rect
      id="Rectangle 385"
      x="28.8594"
      y="34.5293"
      width="6.18423"
      height="7.73029"
      fill="#E4CFC6"
    />
    <rect
      id="Rectangle 378"
      x="36.5898"
      y="21.6445"
      width="6.18423"
      height="7.73029"
      fill="#E4CFC6"
    />
    <rect
      id="Rectangle 386"
      x="36.5898"
      y="34.5293"
      width="6.18423"
      height="7.73029"
      fill="#E4CFC6"
    />
    <rect
      id="Rectangle 379"
      x="5.66797"
      y="9.27539"
      width="6.18423"
      height="7.73029"
      fill="#E4CFC6"
    />
    <rect
      id="Rectangle 380"
      x="13.3984"
      y="9.27539"
      width="6.18423"
      height="7.73029"
      fill="#E4CFC6"
    />
    <rect
      id="Rectangle 381"
      x="21.1289"
      y="9.27539"
      width="6.18423"
      height="7.73029"
      fill="#E4CFC6"
    />
    <rect
      id="Rectangle 382"
      x="28.8594"
      y="9.27539"
      width="6.18423"
      height="7.73029"
      fill="#E4CFC6"
    />
    <rect
      id="Rectangle 383"
      x="36.5898"
      y="9.27539"
      width="6.18423"
      height="7.73029"
      fill="#E4CFC6"
    />
    <rect
      id="Rectangle 369"
      x="5.66797"
      y="34.5293"
      width="9.7917"
      height="14.9452"
      fill="#E4CFC6"
    />
  </g>
  <defs>
    <linearGradient
      id="paint0_linear_1_11138"
      x1="24.4798"
      y1="1.54687"
      x2="24.4798"
      y2="49.4747"
      gradientUnits="userSpaceOnUse"
    >
      <stop stop-color="#FFBCA6" stop-opacity="0.8" />
      <stop offset="0.56" stop-color="#D9CFC8" stop-opacity="0" />
      <stop offset="1" stop-color="#C89C8F" />
    </linearGradient>
  </defs>
</svg>
